<svg xmlns="http://www.w3.org/2000/svg" width="1200" height="630" viewBox="0 0 1200 630" role="img" aria-labelledby="title desc">
  <title id="title">Visual Gallery</title>
  <desc id="desc">Warm photography portfolio preview for Visual Gallery.</desc>
  <rect width="1200" height="630" fill="#f8f3ea"/>
  <rect x="72" y="70" width="1056" height="490" rx="28" fill="#261d18"/>
  <rect x="112" y="110" width="310" height="390" rx="16" fill="#d77f55"/>
  <rect x="446" y="110" width="310" height="390" rx="16" fill="#bda58b"/>
  <rect x="780" y="110" width="308" height="390" rx="16" fill="#6f7f77"/>
  <circle cx="268" cy="240" r="68" fill="#f8f3ea" opacity="0.9"/>
  <path d="M142 460c66-88 122-132 168-132 49 0 97 43 144 132H142Z" fill="#f8f3ea" opacity="0.88"/>
  <circle cx="602" cy="242" r="70" fill="#261d18" opacity="0.38"/>
  <path d="M480 454c61-83 113-124 156-124 46 0 91 41 137 124H480Z" fill="#261d18" opacity="0.34"/>
  <circle cx="936" cy="242" r="70" fill="#f8f3ea" opacity="0.82"/>
  <path d="M816 454c60-83 111-124 154-124 47 0 93 41 138 124H816Z" fill="#f8f3ea" opacity="0.78"/>
  <rect x="112" y="500" width="976" height="1" fill="#f8f3ea" opacity="0.28"/>
  <text x="112" y="548" fill="#f8f3ea" font-family="Inter, ui-sans-serif, system-ui, sans-serif" font-size="54" font-weight="700">Visual Gallery</text>
  <text x="112" y="590" fill="#d7c8b5" font-family="Inter, ui-sans-serif, system-ui, sans-serif" font-size="28">People photography by Jamie Rodriguez</text>
</svg>
